<svg id="Layer_2" data-name="Layer 2" xmlns="http://www.w3.org/2000/svg" width="120" height="60" viewBox="0 0 120 60"><path d="M4.8566,23.5414a8.1257,8.1257,0,0,1-1.4779-.1273,5.8842,5.8842,0,0,1-1.2755-.3817l.17-1.3179a8.6744,8.6744,0,0,0,1.3865.4665,5.5942,5.5942,0,0,0,1.3017.16,2.33,2.33,0,0,0,1.3571-.32,1.1187,1.1187,0,0,0,.4437-.9722,1.2717,1.2717,0,0,0-.8482-1.2136l-1.6051-.7307a4.0161,4.0161,0,0,1-1.4517-1.0374A2.2753,2.2753,0,0,1,2.3511,16.56a2.4127,2.4127,0,0,1,.7308-1.8792A2.9635,2.9635,0,0,1,5.15,14.0153a4.6075,4.6075,0,0,1,1.6507.2741,4.2869,4.2869,0,0,1,1.3833.8938l-.9135.9265a4.5564,4.5564,0,0,0-1.0733-.6818,2.6366,2.6366,0,0,0-1.0407-.212,1.5292,1.5292,0,0,0-1.0407.3229,1.2035,1.2035,0,0,0-.3686.9559,1.0937,1.0937,0,0,0,.2414.734,2.0886,2.0886,0,0,0,.7112.5057l1.3571.6394a4.7381,4.7381,0,0,1,1.5659,1.09,2.271,2.271,0,0,1,.5351,1.5594,2.2336,2.2336,0,0,1-.8189,1.8889A4.0474,4.0474,0,0,1,4.8566,23.5414Z" fill="#fff"/><path d="M9.3847,23.4109,12.06,14.1458H13.952l2.6751,9.2651h-1.37l-2.1923-8.1428h-.1174l-2.1923,8.1428Zm1.24-2.2576v-1.24h4.6978v1.24Z" fill="#fff"/><path d="M17.4427,15.3855v-1.24h6.7857v1.24Zm2.7143,8.0254V14.1458h1.3571v9.2651Z" fill="#fff"/><path d="M25.6638,23.4109V14.1458H27.021v9.2651ZM26.93,19.8875v-1.24h1.9183a1.69,1.69,0,0,0,1.21-.4111,1.5142,1.5142,0,0,0,.4339-1.1549,1.7143,1.7143,0,0,0-.4339-1.256,1.6221,1.6221,0,0,0-1.21-.44H26.9557l-.1566-1.24h2.0488a3.151,3.151,0,0,1,2.2281.7308,2.6928,2.6928,0,0,1,.7863,2.0748,2.8933,2.8933,0,0,1-.7863,2.1662,3.0511,3.0511,0,0,1-2.2281.77Zm3.706,3.5234-2.0748-4.3585h1.4354l2.2054,4.3585Z" fill="#fff"/><path d="M33.6761,15.3855v-1.24h5.6374v1.24Zm0,8.0254v-1.24h5.6374v1.24Zm2.1336,0V14.1458h1.3571v9.2651Z" fill="#fff"/><path d="M41.5841,23.4109,40.54,14.1458h1.37l.783,8.2211h.13l.8547-5.8722h1.3049l-.4371,1.2919h-.261L43.6,23.4109Zm3.4646,0-.6851-5.6243h-.261l-.4241-1.2919h1.3049l.8417,5.8722h.13l.783-8.2211h1.37l-1.044,9.2651Z" fill="#fff"/><path d="M49.3354,15.3855v-1.24h5.6373v1.24Zm0,8.0254v-1.24h5.6373v1.24Zm2.1336,0V14.1458h1.3571v9.2651Z" fill="#fff"/><path d="M56.5908,15.3855v-1.24h6.7857v1.24Zm2.7143,8.0254V14.1458h1.3572v9.2651Z" fill="#fff"/><path d="M64.4205,15.3855v-1.24h6.7857v1.24Zm2.7142,8.0254V14.1458h1.3572v9.2651Z" fill="#fff"/><path d="M72.6416,23.4109V14.1458h1.3571v9.2651Zm.274-3.9931v-1.24h5.4873v1.24Zm4.3716,3.9931V14.1458h1.3571v9.2651Z" fill="#fff"/><path d="M79.8514,23.4109l2.6751-9.2651h1.8922l2.6751,9.2651h-1.37l-2.1923-8.1428h-.1174l-2.1923,8.1428Zm1.24-2.2576v-1.24h4.6977v1.24Z" fill="#fff"/><path d="M90.7476,20.3182l-3.1971-6.1724h1.4354l2.2576,4.6325h.1174l2.2576-4.6325h1.4354l-3.1971,6.1724Zm-.124,3.0927V18.8436h1.3572v4.5673Z" fill="#fff"/><path d="M95.5106,23.4109l2.6752-9.2651h1.8921l2.6751,9.2651h-1.37l-2.1922-8.1428h-.1175l-2.1923,8.1428Zm1.24-2.2576v-1.24h4.6978v1.24Z" fill="#fff"/><path d="M111.868,23.4109V21.9232a11.0863,11.0863,0,0,0,3.2069-2.4695,4.119,4.119,0,0,0,1.06-2.6458,1.6382,1.6382,0,0,0-.3915-1.194,1.5981,1.5981,0,0,0-1.1875-.398,2.3418,2.3418,0,0,0-1.1027.3066,3.18,3.18,0,0,0-.9852.8156l-.9-.8939a3.1592,3.1592,0,0,1,1.2788-1.0374,4.0157,4.0157,0,0,1,1.7356-.3915,3.0719,3.0719,0,0,1,2.1956.6949,2.7731,2.7731,0,0,1,.7275,2.0977,4.6651,4.6651,0,0,1-.8907,2.6914,9.6246,9.6246,0,0,1-2.711,2.4761v1.4355Zm.3915,0v-1.24h5.6373v1.24Z" fill="#fff"/><path d="M15.6506,39.1642H13.7019V34.2924h1.9487v4.8718Zm1.9487,2.9231H15.6506V39.1642h1.9487v2.9231Zm.9744,3.8974h-.9744V42.0873H19.548v3.8974Zm.9743-3.8974V39.1642h1.9487v2.9231H19.548Zm1.9487-2.9231V34.2924h1.9487v4.8718H21.4967Z" fill="#fff"/><path d="M25.3941,36.2411H24.42V34.2924h1.9487v1.9487Zm0,9.7436H24.42V37.2155h1.9487v8.7692Z" fill="#fff"/><path d="M33.189,40.1386v-.9744H30.2659v.9744h-.9744v5.8461H27.3428V37.2155h1.9487V38.19h.9744v-.9743H33.189V38.19h.9743v1.9488Z" fill="#fff"/><path d="M38.0607,44.036H36.112V39.1642h-.9743V37.2155h.9743V35.2668h1.9487v1.9487h.9744v1.9487h-.9744V44.036Zm.9744,1.9487h-.9744V44.036h1.9487v1.9487Z" fill="#fff"/><path d="M42.9325,44.036H40.9838V37.2155h1.9487V44.036Zm4.8718,1.9487H42.9325V44.036H46.83V37.2155h1.9487v8.7692Z" fill="#fff"/><path d="M56.5735,39.1642H49.753V37.2155h6.8205v1.9487Zm.9743,6.82H51.7017V44.036H49.753V42.0873h1.9487V40.1386h4.8718v-.9744h1.9487v6.82ZM55.5991,44.036h.9744V42.0873H51.7017V44.036h3.8974Z" fill="#fff"/><path d="M60.4709,45.9847h-.9744V34.2924h1.9487V45.9847Z" fill="#fff"/><path d="M68.2657,45.9847h-.9744V34.2924H69.24v7.7949h1.9488V44.036H69.24v1.9487Zm4.8718-3.8974H71.1888V40.1386h1.9487v1.9487Zm2.923,3.8974h-.9743V44.036H73.1375V42.0873h1.9487V34.2924h1.9487V45.9847Z" fill="#fff"/><path d="M79.9579,44.036H78.0092V39.1642h1.9487V44.036Zm3.8975-4.8718H79.9579V37.2155h3.8975v1.9487Zm-.9744,6.82H79.9579V44.036h3.8975v1.9487Zm.9744-1.9487V39.1642h1.9487V44.036H83.8554Z" fill="#fff"/><path d="M92.6245,40.1386v-.9744h-2.923v.9744h-.9744v5.8461H86.7784V37.2155h1.9487V38.19h.9744v-.9743h2.923V38.19h.9744v1.9488Z" fill="#fff"/><path d="M95.5476,45.9847h-.9744V34.2924H96.522V45.9847Z" fill="#fff"/><path d="M104.3168,45.9847h-6.82v-6.82H99.445V37.2155h3.8974V34.2924h1.9487V45.9847Zm-1.9487-1.9487h.9743V39.1642H99.445V44.036h2.9231Z" fill="#fff"/></svg>